<?xml version="1.0" encoding="UTF-8" standalone="no"?> <svg width="43" height="43" viewBox="0 0 43 43" fill="none" xmlns="http://www.w3.org/2000/svg">
<rect x="0.333984" y="0.640076" width="42" height="42" rx="21" fill="black"/>
<path d="M26.7615 32.0893C26.2543 32.0893 25.8485 31.9878 25.2398 31.7849C21.892 30.8719 18.8485 29.0458 16.4137 26.611C13.8775 24.0748 12.0514 21.0313 11.1383 17.6835C10.9354 17.0748 10.834 16.7704 10.834 16.1617C10.834 15.5531 11.0369 14.7415 11.3412 14.1328C11.6456 13.727 11.9499 13.3212 12.5586 12.8139L12.7615 12.611C13.3702 12.0023 13.6746 11.698 14.0804 11.4951C14.892 11.0893 16.0079 11.0893 16.8195 11.4951C17.2253 11.698 17.6311 12.0023 18.1383 12.611L18.3412 12.8139C18.747 13.2197 18.9499 13.4226 19.1528 13.727C19.7615 14.7415 19.7615 16.0603 19.1528 17.0748C18.9499 17.2777 18.747 17.4806 18.3412 17.8864C18.3412 17.9878 18.2398 17.9878 18.2398 17.9878L18.3412 18.0893C19.0514 19.5096 19.9644 20.727 21.0804 21.8429C22.1963 22.9589 23.5151 23.8719 24.834 24.582L24.9354 24.6835C24.9354 24.6835 24.9354 24.582 25.0369 24.582C25.4427 24.1762 25.6456 23.9733 25.9499 23.7704C26.9644 23.1617 28.2833 23.1617 29.2978 23.7704C29.6021 23.9733 29.805 24.1762 30.2108 24.582L30.4137 24.7849C31.0224 25.3936 31.3267 25.698 31.5296 26.1038C31.9354 26.9154 31.9354 28.0313 31.5296 28.8429C31.3267 29.2487 31.0224 29.6545 30.4137 30.1617L30.2108 30.3646C29.6021 30.9733 29.2978 31.2777 28.7905 31.582C28.1818 31.8864 27.3702 32.0893 26.7615 32.0893ZM15.5007 13.2197C15.2978 13.2197 15.1963 13.2197 14.9934 13.3212C14.7905 13.4226 14.5876 13.6255 14.1818 14.0313L13.9789 14.2342C13.4717 14.7415 13.2688 14.9444 13.1673 15.1473C12.9644 15.4516 12.863 15.8574 12.863 16.1617C12.863 16.4661 12.863 16.5675 13.0659 17.1762C13.8775 20.2197 15.5007 22.9589 17.7325 25.0893C19.9644 27.3212 22.7036 28.9444 25.747 29.756C26.3557 29.9589 26.4572 29.9589 26.7615 29.9589C27.0659 29.9589 27.4717 29.8574 27.776 29.6545C27.9789 29.5531 28.1818 29.3502 28.6891 28.8429L28.892 28.64C29.2978 28.2342 29.6021 27.9299 29.7036 27.8284C29.805 27.5241 29.805 27.2197 29.7036 26.9154C29.6021 26.8139 29.2978 26.5096 28.892 26.1038L28.6891 25.9009C28.3847 25.5965 28.2833 25.4951 28.1818 25.3936C27.8775 25.1907 27.3702 25.1907 27.0659 25.3936C26.9644 25.4951 26.7615 25.5965 26.5586 25.9009C26.3557 26.1038 26.2543 26.2052 26.1528 26.2052C25.6456 26.5096 25.0369 26.7125 24.4282 26.5096C24.3267 26.5096 24.2253 26.4081 24.0224 26.3067C22.3992 25.4951 20.9789 24.4806 19.6601 23.2632C18.3412 21.9444 17.3267 20.5241 16.6166 18.9009C16.4137 18.7994 16.3122 18.698 16.3122 18.5965C16.1093 17.9878 16.3122 17.2777 16.6166 16.7704C16.718 16.669 16.8195 16.669 16.9209 16.4661C17.2253 16.1617 17.4282 15.9589 17.4282 15.9589C17.6311 15.6545 17.6311 15.1473 17.4282 14.8429C17.4282 14.7415 17.2253 14.5386 16.9209 14.2342L16.718 14.0313C16.3122 13.6255 16.0079 13.3212 15.9064 13.3212C15.805 13.2197 15.6021 13.2197 15.5007 13.2197Z" fill="white"/>
</svg>
